<svg width="624" height="352" viewBox="0 0 624 352" fill="none" xmlns="http://www.w3.org/2000/svg">
<rect width="624" height="352" fill="#28306A"/>
<path d="M58.5284 73.9091H66.1136L74.125 93.4545H74.4659L82.4773 73.9091H90.0625V103H84.0966V84.0653H83.8551L76.3267 102.858H72.2642L64.7358 83.9943H64.4943V103H58.5284V73.9091ZM94.0163 103V81.1818H100.067V103H94.0163ZM97.0561 78.3693C96.1565 78.3693 95.3847 78.071 94.7408 77.4744C94.1063 76.8684 93.7891 76.1439 93.7891 75.3011C93.7891 74.4678 94.1063 73.7528 94.7408 73.1562C95.3847 72.5502 96.1565 72.2472 97.0561 72.2472C97.9557 72.2472 98.7228 72.5502 99.3572 73.1562C100.001 73.7528 100.323 74.4678 100.323 75.3011C100.323 76.1439 100.001 76.8684 99.3572 77.4744C98.7228 78.071 97.9557 78.3693 97.0561 78.3693ZM103.915 103V81.1818H109.781V84.9886H110.009C110.406 83.6345 111.074 82.6117 112.011 81.9205C112.949 81.2197 114.028 80.8693 115.25 80.8693C115.553 80.8693 115.88 80.8883 116.23 80.9261C116.58 80.964 116.888 81.0161 117.153 81.0824V86.4517C116.869 86.3665 116.476 86.2907 115.974 86.2244C115.473 86.1581 115.013 86.125 114.597 86.125C113.706 86.125 112.911 86.3191 112.21 86.7074C111.519 87.0862 110.97 87.6165 110.562 88.2983C110.165 88.9801 109.966 89.7661 109.966 90.6562V103H103.915ZM128.124 103.426C125.889 103.426 123.967 102.953 122.357 102.006C120.757 101.049 119.526 99.7235 118.664 98.0284C117.812 96.3333 117.386 94.3826 117.386 92.1761C117.386 89.9413 117.817 87.9811 118.678 86.2955C119.549 84.6004 120.785 83.2794 122.386 82.3324C123.986 81.3759 125.889 80.8977 128.096 80.8977C129.999 80.8977 131.666 81.2434 133.096 81.9347C134.526 82.6259 135.657 83.5966 136.491 84.8466C137.324 86.0966 137.783 87.5644 137.869 89.25H132.158C131.997 88.161 131.571 87.285 130.88 86.6222C130.198 85.9498 129.303 85.6136 128.195 85.6136C127.258 85.6136 126.439 85.8693 125.738 86.3807C125.047 86.8826 124.507 87.6165 124.119 88.5824C123.73 89.5483 123.536 90.7178 123.536 92.0909C123.536 93.483 123.726 94.6667 124.104 95.642C124.493 96.6174 125.037 97.3608 125.738 97.8722C126.439 98.3835 127.258 98.6392 128.195 98.6392C128.887 98.6392 129.507 98.4972 130.056 98.2131C130.615 97.929 131.074 97.517 131.434 96.9773C131.803 96.428 132.045 95.7699 132.158 95.0028H137.869C137.774 96.6695 137.319 98.1373 136.505 99.4062C135.7 100.666 134.587 101.651 133.167 102.361C131.746 103.071 130.066 103.426 128.124 103.426ZM150.601 103.426C148.394 103.426 146.486 102.957 144.876 102.02C143.276 101.073 142.04 99.7566 141.169 98.071C140.298 96.3759 139.862 94.411 139.862 92.1761C139.862 89.9223 140.298 87.9527 141.169 86.267C142.04 84.572 143.276 83.2557 144.876 82.3182C146.486 81.3712 148.394 80.8977 150.601 80.8977C152.807 80.8977 154.711 81.3712 156.311 82.3182C157.921 83.2557 159.161 84.572 160.033 86.267C160.904 87.9527 161.339 89.9223 161.339 92.1761C161.339 94.411 160.904 96.3759 160.033 98.071C159.161 99.7566 157.921 101.073 156.311 102.02C154.711 102.957 152.807 103.426 150.601 103.426ZM150.629 98.7386C151.633 98.7386 152.471 98.4545 153.143 97.8864C153.816 97.3087 154.322 96.5227 154.663 95.5284C155.014 94.5341 155.189 93.4025 155.189 92.1335C155.189 90.8646 155.014 89.733 154.663 88.7386C154.322 87.7443 153.816 86.9583 153.143 86.3807C152.471 85.803 151.633 85.5142 150.629 85.5142C149.616 85.5142 148.764 85.803 148.072 86.3807C147.391 86.9583 146.875 87.7443 146.524 88.7386C146.183 89.733 146.013 90.8646 146.013 92.1335C146.013 93.4025 146.183 94.5341 146.524 95.5284C146.875 96.5227 147.391 97.3087 148.072 97.8864C148.764 98.4545 149.616 98.7386 150.629 98.7386ZM172.532 103V81.1818H178.583V103H172.532ZM175.572 78.3693C174.672 78.3693 173.9 78.071 173.256 77.4744C172.622 76.8684 172.305 76.1439 172.305 75.3011C172.305 74.4678 172.622 73.7528 173.256 73.1562C173.9 72.5502 174.672 72.2472 175.572 72.2472C176.471 72.2472 177.238 72.5502 177.873 73.1562C178.517 73.7528 178.839 74.4678 178.839 75.3011C178.839 76.1439 178.517 76.8684 177.873 77.4744C177.238 78.071 176.471 78.3693 175.572 78.3693ZM188.482 90.3864V103H182.43V81.1818H188.197V85.0312H188.453C188.936 83.7623 189.746 82.7585 190.882 82.0199C192.018 81.2718 193.396 80.8977 195.016 80.8977C196.531 80.8977 197.852 81.2292 198.979 81.892C200.106 82.5549 200.982 83.5019 201.607 84.733C202.232 85.9545 202.544 87.4129 202.544 89.108V103H196.493V90.1875C196.502 88.8523 196.161 87.8106 195.47 87.0625C194.779 86.3049 193.827 85.9261 192.615 85.9261C191.801 85.9261 191.081 86.1013 190.456 86.4517C189.84 86.8021 189.357 87.3134 189.007 87.9858C188.666 88.6487 188.491 89.4489 188.482 90.3864ZM217.918 81.1818V85.7273H204.779V81.1818H217.918ZM207.762 75.9545H213.813V96.2955C213.813 96.8542 213.898 97.2898 214.069 97.6023C214.239 97.9053 214.476 98.1184 214.779 98.2415C215.092 98.3646 215.451 98.4261 215.859 98.4261C216.143 98.4261 216.427 98.4025 216.711 98.3551C216.995 98.2983 217.213 98.2557 217.364 98.2273L218.316 102.73C218.013 102.825 217.587 102.934 217.038 103.057C216.488 103.189 215.821 103.27 215.035 103.298C213.576 103.355 212.298 103.161 211.2 102.716C210.111 102.271 209.263 101.58 208.657 100.642C208.051 99.7045 207.753 98.5208 207.762 97.0909V75.9545ZM230.569 103.426C228.325 103.426 226.393 102.972 224.773 102.062C223.164 101.144 221.923 99.8466 221.052 98.1705C220.181 96.4848 219.745 94.4915 219.745 92.1903C219.745 89.946 220.181 87.9763 221.052 86.2812C221.923 84.5862 223.149 83.2652 224.731 82.3182C226.322 81.3712 228.187 80.8977 230.327 80.8977C231.767 80.8977 233.107 81.1297 234.347 81.5938C235.597 82.0483 236.686 82.7348 237.614 83.6534C238.552 84.572 239.281 85.7273 239.802 87.1193C240.323 88.5019 240.583 90.1212 240.583 91.9773V93.6392H222.16V89.8892H234.887C234.887 89.018 234.698 88.2462 234.319 87.5739C233.94 86.9015 233.415 86.3759 232.742 85.9972C232.079 85.6089 231.308 85.4148 230.427 85.4148C229.508 85.4148 228.694 85.6278 227.984 86.054C227.283 86.4706 226.734 87.0341 226.336 87.7443C225.938 88.4451 225.735 89.2263 225.725 90.0881V93.6534C225.725 94.733 225.924 95.6657 226.322 96.4517C226.729 97.2377 227.302 97.8438 228.04 98.2699C228.779 98.696 229.655 98.9091 230.668 98.9091C231.341 98.9091 231.956 98.8144 232.515 98.625C233.074 98.4356 233.552 98.1515 233.95 97.7727C234.347 97.3939 234.65 96.9299 234.859 96.3807L240.455 96.75C240.171 98.0947 239.589 99.2689 238.708 100.273C237.837 101.267 236.71 102.044 235.327 102.602C233.954 103.152 232.368 103.426 230.569 103.426ZM243.532 103V81.1818H249.398V84.9886H249.626C250.023 83.6345 250.691 82.6117 251.629 81.9205C252.566 81.2197 253.646 80.8693 254.867 80.8693C255.17 80.8693 255.497 80.8883 255.847 80.9261C256.198 80.964 256.505 81.0161 256.771 81.0824V86.4517C256.487 86.3665 256.094 86.2907 255.592 86.2244C255.09 86.1581 254.63 86.125 254.214 86.125C253.324 86.125 252.528 86.3191 251.827 86.7074C251.136 87.0862 250.587 87.6165 250.18 88.2983C249.782 88.9801 249.583 89.7661 249.583 90.6562V103H243.532ZM264.496 103.412C263.104 103.412 261.863 103.17 260.774 102.688C259.685 102.195 258.823 101.471 258.189 100.514C257.564 99.5483 257.251 98.3456 257.251 96.9062C257.251 95.6941 257.474 94.6761 257.919 93.8523C258.364 93.0284 258.97 92.3655 259.737 91.8636C260.504 91.3617 261.375 90.983 262.351 90.7273C263.336 90.4716 264.368 90.2917 265.447 90.1875C266.716 90.0549 267.739 89.9318 268.516 89.8182C269.292 89.6951 269.856 89.5152 270.206 89.2784C270.556 89.0417 270.732 88.6913 270.732 88.2273V88.142C270.732 87.2424 270.447 86.5464 269.879 86.054C269.321 85.5616 268.525 85.3153 267.493 85.3153C266.404 85.3153 265.537 85.5568 264.893 86.0398C264.25 86.5133 263.823 87.1098 263.615 87.8295L258.018 87.375C258.303 86.0492 258.861 84.9034 259.695 83.9375C260.528 82.9621 261.603 82.214 262.919 81.6932C264.245 81.1629 265.779 80.8977 267.521 80.8977C268.733 80.8977 269.893 81.0398 271.001 81.3239C272.119 81.608 273.108 82.0483 273.97 82.6449C274.841 83.2415 275.528 84.0085 276.03 84.946C276.532 85.8741 276.783 86.9867 276.783 88.2841V103H271.044V99.9744H270.874C270.523 100.656 270.054 101.258 269.467 101.778C268.88 102.29 268.175 102.692 267.351 102.986C266.527 103.27 265.575 103.412 264.496 103.412ZM266.229 99.2358C267.119 99.2358 267.905 99.0606 268.587 98.7102C269.268 98.3504 269.804 97.8674 270.192 97.2614C270.58 96.6553 270.774 95.9687 270.774 95.2017V92.8864C270.585 93.0095 270.324 93.1231 269.993 93.2273C269.671 93.322 269.306 93.4119 268.899 93.4972C268.492 93.5729 268.085 93.6439 267.678 93.7102C267.27 93.767 266.901 93.8191 266.57 93.8665C265.859 93.9706 265.239 94.1364 264.709 94.3636C264.179 94.5909 263.767 94.8987 263.473 95.2869C263.179 95.6657 263.033 96.1392 263.033 96.7074C263.033 97.5312 263.331 98.161 263.928 98.5966C264.534 99.0227 265.301 99.2358 266.229 99.2358ZM290.335 103.426C288.1 103.426 286.178 102.953 284.568 102.006C282.968 101.049 281.737 99.7235 280.875 98.0284C280.023 96.3333 279.597 94.3826 279.597 92.1761C279.597 89.9413 280.027 87.9811 280.889 86.2955C281.76 84.6004 282.996 83.2794 284.597 82.3324C286.197 81.3759 288.1 80.8977 290.307 80.8977C292.21 80.8977 293.877 81.2434 295.307 81.9347C296.737 82.6259 297.868 83.5966 298.702 84.8466C299.535 86.0966 299.994 87.5644 300.08 89.25H294.369C294.208 88.161 293.782 87.285 293.091 86.6222C292.409 85.9498 291.514 85.6136 290.406 85.6136C289.469 85.6136 288.65 85.8693 287.949 86.3807C287.258 86.8826 286.718 87.6165 286.33 88.5824C285.941 89.5483 285.747 90.7178 285.747 92.0909C285.747 93.483 285.937 94.6667 286.315 95.642C286.704 96.6174 287.248 97.3608 287.949 97.8722C288.65 98.3835 289.469 98.6392 290.406 98.6392C291.098 98.6392 291.718 98.4972 292.267 98.2131C292.826 97.929 293.285 97.517 293.645 96.9773C294.014 96.428 294.256 95.7699 294.369 95.0028H300.08C299.985 96.6695 299.53 98.1373 298.716 99.4062C297.911 100.666 296.798 101.651 295.378 102.361C293.957 103.071 292.277 103.426 290.335 103.426ZM314.559 81.1818V85.7273H301.42V81.1818H314.559ZM304.403 75.9545H310.454V96.2955C310.454 96.8542 310.539 97.2898 310.71 97.6023C310.88 97.9053 311.117 98.1184 311.42 98.2415C311.732 98.3646 312.092 98.4261 312.499 98.4261C312.783 98.4261 313.067 98.4025 313.352 98.3551C313.636 98.2983 313.853 98.2557 314.005 98.2273L314.957 102.73C314.654 102.825 314.228 102.934 313.678 103.057C313.129 103.189 312.461 103.27 311.675 103.298C310.217 103.355 308.939 103.161 307.84 102.716C306.751 102.271 305.904 101.58 305.298 100.642C304.692 99.7045 304.393 98.5208 304.403 97.0909V75.9545ZM317.501 103V81.1818H323.552V103H317.501ZM320.54 78.3693C319.641 78.3693 318.869 78.071 318.225 77.4744C317.591 76.8684 317.273 76.1439 317.273 75.3011C317.273 74.4678 317.591 73.7528 318.225 73.1562C318.869 72.5502 319.641 72.2472 320.54 72.2472C321.44 72.2472 322.207 72.5502 322.842 73.1562C323.486 73.7528 323.808 74.4678 323.808 75.3011C323.808 76.1439 323.486 76.8684 322.842 77.4744C322.207 78.071 321.44 78.3693 320.54 78.3693ZM337.257 103.426C335.051 103.426 333.143 102.957 331.533 102.02C329.932 101.073 328.696 99.7566 327.825 98.071C326.954 96.3759 326.518 94.411 326.518 92.1761C326.518 89.9223 326.954 87.9527 327.825 86.267C328.696 84.572 329.932 83.2557 331.533 82.3182C333.143 81.3712 335.051 80.8977 337.257 80.8977C339.464 80.8977 341.367 81.3712 342.967 82.3182C344.577 83.2557 345.818 84.572 346.689 86.267C347.56 87.9527 347.996 89.9223 347.996 92.1761C347.996 94.411 347.56 96.3759 346.689 98.071C345.818 99.7566 344.577 101.073 342.967 102.02C341.367 102.957 339.464 103.426 337.257 103.426ZM337.286 98.7386C338.289 98.7386 339.127 98.4545 339.8 97.8864C340.472 97.3087 340.979 96.5227 341.32 95.5284C341.67 94.5341 341.845 93.4025 341.845 92.1335C341.845 90.8646 341.67 89.733 341.32 88.7386C340.979 87.7443 340.472 86.9583 339.8 86.3807C339.127 85.803 338.289 85.5142 337.286 85.5142C336.272 85.5142 335.42 85.803 334.729 86.3807C334.047 86.9583 333.531 87.7443 333.18 88.7386C332.839 89.733 332.669 90.8646 332.669 92.1335C332.669 93.4025 332.839 94.5341 333.18 95.5284C333.531 96.5227 334.047 97.3087 334.729 97.8864C335.42 98.4545 336.272 98.7386 337.286 98.7386ZM356.982 90.3864V103H350.93V81.1818H356.697V85.0312H356.953C357.436 83.7623 358.246 82.7585 359.382 82.0199C360.518 81.2718 361.896 80.8977 363.516 80.8977C365.031 80.8977 366.352 81.2292 367.479 81.892C368.606 82.5549 369.482 83.5019 370.107 84.733C370.732 85.9545 371.044 87.4129 371.044 89.108V103H364.993V90.1875C365.002 88.8523 364.661 87.8106 363.97 87.0625C363.279 86.3049 362.327 85.9261 361.115 85.9261C360.301 85.9261 359.581 86.1013 358.956 86.4517C358.34 86.8021 357.857 87.3134 357.507 87.9858C357.166 88.6487 356.991 89.4489 356.982 90.3864ZM58.4148 151V129.182H64.4659V151H58.4148ZM61.4545 126.369C60.5549 126.369 59.7831 126.071 59.1392 125.474C58.5047 124.868 58.1875 124.144 58.1875 123.301C58.1875 122.468 58.5047 121.753 59.1392 121.156C59.7831 120.55 60.5549 120.247 61.4545 120.247C62.3542 120.247 63.1212 120.55 63.7557 121.156C64.3996 121.753 64.7216 122.468 64.7216 123.301C64.7216 124.144 64.3996 124.868 63.7557 125.474C63.1212 126.071 62.3542 126.369 61.4545 126.369ZM74.3643 138.386V151H68.3132V129.182H74.0803V133.031H74.3359C74.8189 131.762 75.6286 130.759 76.7649 130.02C77.9013 129.272 79.2791 128.898 80.8984 128.898C82.4136 128.898 83.7346 129.229 84.8615 129.892C85.9884 130.555 86.8643 131.502 87.4893 132.733C88.1143 133.955 88.4268 135.413 88.4268 137.108V151H82.3757V138.188C82.3852 136.852 82.0443 135.811 81.353 135.062C80.6617 134.305 79.71 133.926 78.4979 133.926C77.6835 133.926 76.9638 134.101 76.3388 134.452C75.7232 134.802 75.2403 135.313 74.8899 135.986C74.549 136.649 74.3738 137.449 74.3643 138.386ZM124.9 121.909V151H119.587L106.931 132.69H106.718V151H100.567V121.909H105.965L118.522 140.205H118.778V121.909H124.9ZM135.089 151.412C133.697 151.412 132.457 151.17 131.368 150.688C130.279 150.195 129.417 149.471 128.783 148.514C128.158 147.548 127.845 146.346 127.845 144.906C127.845 143.694 128.068 142.676 128.513 141.852C128.958 141.028 129.564 140.366 130.331 139.864C131.098 139.362 131.969 138.983 132.945 138.727C133.929 138.472 134.962 138.292 136.041 138.188C137.31 138.055 138.333 137.932 139.109 137.818C139.886 137.695 140.449 137.515 140.8 137.278C141.15 137.042 141.325 136.691 141.325 136.227V136.142C141.325 135.242 141.041 134.546 140.473 134.054C139.914 133.562 139.119 133.315 138.087 133.315C136.998 133.315 136.131 133.557 135.487 134.04C134.843 134.513 134.417 135.11 134.209 135.83L128.612 135.375C128.896 134.049 129.455 132.903 130.288 131.938C131.122 130.962 132.196 130.214 133.513 129.693C134.839 129.163 136.373 128.898 138.115 128.898C139.327 128.898 140.487 129.04 141.595 129.324C142.713 129.608 143.702 130.048 144.564 130.645C145.435 131.241 146.122 132.009 146.624 132.946C147.125 133.874 147.376 134.987 147.376 136.284V151H141.638V147.974H141.467C141.117 148.656 140.648 149.258 140.061 149.778C139.474 150.29 138.768 150.692 137.945 150.986C137.121 151.27 136.169 151.412 135.089 151.412ZM136.822 147.236C137.713 147.236 138.499 147.061 139.18 146.71C139.862 146.35 140.397 145.867 140.786 145.261C141.174 144.655 141.368 143.969 141.368 143.202V140.886C141.179 141.009 140.918 141.123 140.587 141.227C140.265 141.322 139.9 141.412 139.493 141.497C139.086 141.573 138.679 141.644 138.271 141.71C137.864 141.767 137.495 141.819 137.163 141.866C136.453 141.971 135.833 142.136 135.303 142.364C134.772 142.591 134.36 142.899 134.067 143.287C133.773 143.666 133.626 144.139 133.626 144.707C133.626 145.531 133.925 146.161 134.521 146.597C135.127 147.023 135.894 147.236 136.822 147.236ZM170.631 129.182L163.003 151H156.185L148.557 129.182H154.949L159.48 144.793H159.707L164.224 129.182H170.631ZM181.099 151V121.909H187.15V132.847H187.335C187.6 132.259 187.983 131.663 188.485 131.057C188.996 130.441 189.659 129.93 190.474 129.523C191.298 129.106 192.32 128.898 193.542 128.898C195.133 128.898 196.601 129.314 197.945 130.148C199.29 130.972 200.365 132.217 201.17 133.884C201.975 135.541 202.377 137.619 202.377 140.119C202.377 142.553 201.984 144.608 201.198 146.284C200.422 147.951 199.361 149.215 198.016 150.077C196.681 150.929 195.185 151.355 193.528 151.355C192.353 151.355 191.354 151.161 190.531 150.773C189.716 150.384 189.049 149.897 188.528 149.31C188.007 148.713 187.609 148.112 187.335 147.506H187.065V151H181.099ZM187.022 140.091C187.022 141.388 187.202 142.52 187.562 143.486C187.922 144.452 188.442 145.205 189.124 145.744C189.806 146.275 190.635 146.54 191.61 146.54C192.595 146.54 193.428 146.27 194.11 145.73C194.792 145.181 195.308 144.423 195.658 143.457C196.018 142.482 196.198 141.36 196.198 140.091C196.198 138.831 196.023 137.723 195.673 136.767C195.322 135.811 194.806 135.062 194.124 134.523C193.442 133.983 192.604 133.713 191.61 133.713C190.625 133.713 189.792 133.973 189.11 134.494C188.438 135.015 187.922 135.754 187.562 136.71C187.202 137.667 187.022 138.794 187.022 140.091ZM211.636 151.412C210.244 151.412 209.004 151.17 207.915 150.688C206.826 150.195 205.964 149.471 205.33 148.514C204.705 147.548 204.392 146.346 204.392 144.906C204.392 143.694 204.615 142.676 205.06 141.852C205.505 141.028 206.111 140.366 206.878 139.864C207.645 139.362 208.516 138.983 209.491 138.727C210.476 138.472 211.509 138.292 212.588 138.188C213.857 138.055 214.88 137.932 215.656 137.818C216.433 137.695 216.996 137.515 217.347 137.278C217.697 137.042 217.872 136.691 217.872 136.227V136.142C217.872 135.242 217.588 134.546 217.02 134.054C216.461 133.562 215.666 133.315 214.634 133.315C213.545 133.315 212.678 133.557 212.034 134.04C211.39 134.513 210.964 135.11 210.756 135.83L205.159 135.375C205.443 134.049 206.002 132.903 206.835 131.938C207.669 130.962 208.743 130.214 210.06 129.693C211.385 129.163 212.92 128.898 214.662 128.898C215.874 128.898 217.034 129.04 218.142 129.324C219.259 129.608 220.249 130.048 221.111 130.645C221.982 131.241 222.669 132.009 223.17 132.946C223.672 133.874 223.923 134.987 223.923 136.284V151H218.185V147.974H218.014C217.664 148.656 217.195 149.258 216.608 149.778C216.021 150.29 215.315 150.692 214.491 150.986C213.668 151.27 212.716 151.412 211.636 151.412ZM213.369 147.236C214.259 147.236 215.045 147.061 215.727 146.71C216.409 146.35 216.944 145.867 217.332 145.261C217.721 144.655 217.915 143.969 217.915 143.202V140.886C217.725 141.009 217.465 141.123 217.134 141.227C216.812 141.322 216.447 141.412 216.04 141.497C215.633 141.573 215.225 141.644 214.818 141.71C214.411 141.767 214.042 141.819 213.71 141.866C213 141.971 212.38 142.136 211.849 142.364C211.319 142.591 210.907 142.899 210.614 143.287C210.32 143.666 210.173 144.139 210.173 144.707C210.173 145.531 210.472 146.161 211.068 146.597C211.674 147.023 212.441 147.236 213.369 147.236ZM227.618 151V129.182H233.484V132.989H233.712C234.109 131.634 234.777 130.612 235.714 129.92C236.652 129.22 237.732 128.869 238.953 128.869C239.256 128.869 239.583 128.888 239.933 128.926C240.284 128.964 240.591 129.016 240.857 129.082V134.452C240.572 134.366 240.179 134.291 239.678 134.224C239.176 134.158 238.716 134.125 238.3 134.125C237.41 134.125 236.614 134.319 235.913 134.707C235.222 135.086 234.673 135.616 234.266 136.298C233.868 136.98 233.669 137.766 233.669 138.656V151H227.618Z" fill="white"/>
<path d="M74.3068 183.08C74.0871 182.39 73.7917 181.773 73.4205 181.227C73.0568 180.674 72.6212 180.205 72.1136 179.818C71.6061 179.424 71.0265 179.125 70.375 178.92C69.7311 178.716 69.0227 178.614 68.25 178.614C66.9394 178.614 65.7576 178.951 64.7045 179.625C63.6515 180.299 62.8182 181.288 62.2045 182.591C61.5985 183.886 61.2955 185.473 61.2955 187.352C61.2955 189.239 61.6023 190.833 62.2159 192.136C62.8295 193.439 63.6705 194.428 64.7386 195.102C65.8068 195.777 67.0227 196.114 68.3864 196.114C69.6515 196.114 70.7538 195.856 71.6932 195.341C72.6402 194.826 73.3712 194.098 73.8864 193.159C74.4091 192.212 74.6705 191.098 74.6705 189.818L75.5795 189.989H68.9205V187.091H78.0682V189.739C78.0682 191.693 77.6515 193.39 76.8182 194.83C75.9924 196.261 74.8485 197.367 73.3864 198.148C71.9318 198.928 70.2652 199.318 68.3864 199.318C66.2803 199.318 64.4318 198.833 62.8409 197.864C61.2576 196.894 60.0227 195.519 59.1364 193.739C58.25 191.951 57.8068 189.83 57.8068 187.375C57.8068 185.519 58.0644 183.852 58.5795 182.375C59.0947 180.898 59.8182 179.644 60.75 178.614C61.6894 177.576 62.7917 176.784 64.0568 176.239C65.3295 175.686 66.7197 175.409 68.2273 175.409C69.4848 175.409 70.6553 175.595 71.7386 175.966C72.8295 176.337 73.7992 176.864 74.6477 177.545C75.5038 178.227 76.2121 179.038 76.7727 179.977C77.3333 180.909 77.7121 181.943 77.9091 183.08H74.3068ZM82.2528 199V181.545H85.5369V184.318H85.7188C86.0369 183.379 86.5975 182.64 87.4006 182.102C88.2112 181.557 89.1278 181.284 90.1506 181.284C90.3627 181.284 90.6127 181.292 90.9006 181.307C91.196 181.322 91.4271 181.341 91.5938 181.364V184.614C91.4574 184.576 91.215 184.534 90.8665 184.489C90.518 184.436 90.1695 184.409 89.821 184.409C89.018 184.409 88.3021 184.58 87.6733 184.92C87.0521 185.254 86.5597 185.72 86.196 186.318C85.8324 186.909 85.6506 187.583 85.6506 188.341V199H82.2528ZM99.4574 199.386C98.3513 199.386 97.3513 199.182 96.4574 198.773C95.5634 198.356 94.8551 197.754 94.3324 196.966C93.8172 196.178 93.5597 195.212 93.5597 194.068C93.5597 193.083 93.7491 192.273 94.1278 191.636C94.5066 191 95.018 190.496 95.6619 190.125C96.3059 189.754 97.0256 189.473 97.821 189.284C98.6165 189.095 99.4271 188.951 100.253 188.852C101.298 188.731 102.147 188.633 102.798 188.557C103.45 188.473 103.923 188.341 104.219 188.159C104.514 187.977 104.662 187.682 104.662 187.273V187.193C104.662 186.201 104.382 185.432 103.821 184.886C103.268 184.341 102.442 184.068 101.344 184.068C100.2 184.068 99.2983 184.322 98.6392 184.83C97.9877 185.33 97.5369 185.886 97.2869 186.5L94.0938 185.773C94.4725 184.712 95.0256 183.856 95.7528 183.205C96.4877 182.545 97.3324 182.068 98.2869 181.773C99.2415 181.47 100.245 181.318 101.298 181.318C101.995 181.318 102.734 181.402 103.514 181.568C104.302 181.727 105.037 182.023 105.719 182.455C106.408 182.886 106.973 183.504 107.412 184.307C107.851 185.102 108.071 186.136 108.071 187.409V199H104.753V196.614H104.616C104.397 197.053 104.067 197.485 103.628 197.909C103.188 198.333 102.624 198.686 101.935 198.966C101.245 199.246 100.42 199.386 99.4574 199.386ZM100.196 196.659C101.135 196.659 101.938 196.473 102.605 196.102C103.279 195.731 103.791 195.246 104.139 194.648C104.495 194.042 104.673 193.394 104.673 192.705V190.455C104.552 190.576 104.317 190.689 103.969 190.795C103.628 190.894 103.238 190.981 102.798 191.057C102.359 191.125 101.931 191.189 101.514 191.25C101.098 191.303 100.749 191.348 100.469 191.386C99.8097 191.47 99.2074 191.61 98.6619 191.807C98.1241 192.004 97.6922 192.288 97.3665 192.659C97.0483 193.023 96.8892 193.508 96.8892 194.114C96.8892 194.955 97.1998 195.591 97.821 196.023C98.4422 196.447 99.2339 196.659 100.196 196.659ZM100.071 179.216L102.73 173.977H106.31L102.787 179.216H100.071ZM120.744 181.545V184.273H111.21V181.545H120.744ZM113.767 177.364H117.165V193.875C117.165 194.534 117.263 195.03 117.46 195.364C117.657 195.689 117.911 195.913 118.222 196.034C118.54 196.148 118.884 196.205 119.256 196.205C119.528 196.205 119.767 196.186 119.972 196.148C120.176 196.11 120.335 196.08 120.449 196.057L121.062 198.864C120.866 198.939 120.585 199.015 120.222 199.091C119.858 199.174 119.403 199.22 118.858 199.227C117.964 199.242 117.131 199.083 116.358 198.75C115.585 198.417 114.96 197.902 114.483 197.205C114.006 196.508 113.767 195.633 113.767 194.58V177.364ZM124.503 199V181.545H127.901V199H124.503ZM126.219 178.852C125.628 178.852 125.12 178.655 124.696 178.261C124.279 177.86 124.071 177.383 124.071 176.83C124.071 176.269 124.279 175.792 124.696 175.398C125.12 174.996 125.628 174.795 126.219 174.795C126.81 174.795 127.313 174.996 127.73 175.398C128.154 175.792 128.366 176.269 128.366 176.83C128.366 177.383 128.154 177.86 127.73 178.261C127.313 178.655 126.81 178.852 126.219 178.852ZM145.551 185.807L142.472 186.352C142.343 185.958 142.138 185.583 141.858 185.227C141.585 184.871 141.214 184.58 140.744 184.352C140.275 184.125 139.688 184.011 138.983 184.011C138.021 184.011 137.218 184.227 136.574 184.659C135.93 185.083 135.608 185.633 135.608 186.307C135.608 186.89 135.824 187.36 136.256 187.716C136.688 188.072 137.384 188.364 138.347 188.591L141.119 189.227C142.725 189.598 143.922 190.17 144.71 190.943C145.498 191.716 145.892 192.72 145.892 193.955C145.892 195 145.589 195.932 144.983 196.75C144.384 197.561 143.547 198.197 142.472 198.659C141.403 199.121 140.165 199.352 138.756 199.352C136.801 199.352 135.206 198.936 133.972 198.102C132.737 197.261 131.979 196.068 131.699 194.523L134.983 194.023C135.188 194.879 135.608 195.527 136.244 195.966C136.881 196.398 137.71 196.614 138.733 196.614C139.847 196.614 140.737 196.383 141.403 195.92C142.07 195.451 142.403 194.879 142.403 194.205C142.403 193.659 142.199 193.201 141.79 192.83C141.388 192.458 140.771 192.178 139.938 191.989L136.983 191.341C135.354 190.97 134.15 190.379 133.369 189.568C132.597 188.758 132.21 187.731 132.21 186.489C132.21 185.458 132.498 184.557 133.074 183.784C133.65 183.011 134.445 182.409 135.46 181.977C136.475 181.538 137.638 181.318 138.949 181.318C140.835 181.318 142.32 181.727 143.403 182.545C144.487 183.356 145.203 184.443 145.551 185.807ZM164.869 199.33C163.309 199.33 161.964 199.045 160.835 198.477C159.714 197.909 158.85 197.136 158.244 196.159C157.638 195.174 157.335 194.061 157.335 192.818C157.335 191.871 157.532 191.03 157.926 190.295C158.32 189.553 158.869 188.867 159.574 188.239C160.278 187.61 161.093 186.977 162.017 186.341L165.767 183.693C166.403 183.277 166.9 182.837 167.256 182.375C167.612 181.905 167.79 181.326 167.79 180.636C167.79 180.091 167.555 179.568 167.085 179.068C166.616 178.568 165.987 178.318 165.199 178.318C164.653 178.318 164.172 178.451 163.756 178.716C163.347 178.981 163.025 179.322 162.79 179.739C162.563 180.148 162.449 180.58 162.449 181.034C162.449 181.564 162.593 182.098 162.881 182.636C163.176 183.174 163.555 183.731 164.017 184.307C164.479 184.875 164.964 185.466 165.472 186.08L176.278 199H172.438L163.494 188.489C162.744 187.602 162.047 186.769 161.403 185.989C160.759 185.201 160.237 184.405 159.835 183.602C159.441 182.792 159.244 181.917 159.244 180.977C159.244 179.909 159.487 178.962 159.972 178.136C160.464 177.303 161.15 176.652 162.028 176.182C162.907 175.712 163.938 175.477 165.119 175.477C166.316 175.477 167.343 175.712 168.199 176.182C169.063 176.644 169.725 177.261 170.188 178.034C170.657 178.799 170.892 179.636 170.892 180.545C170.892 181.652 170.616 182.629 170.062 183.477C169.517 184.318 168.763 185.091 167.801 185.795L163.131 189.239C162.222 189.905 161.589 190.564 161.233 191.216C160.884 191.86 160.71 192.364 160.71 192.727C160.71 193.394 160.881 194.011 161.222 194.58C161.57 195.148 162.055 195.602 162.676 195.943C163.305 196.284 164.04 196.455 164.881 196.455C165.744 196.455 166.585 196.269 167.403 195.898C168.229 195.519 168.975 194.977 169.642 194.273C170.316 193.568 170.85 192.723 171.244 191.739C171.638 190.754 171.835 189.652 171.835 188.432H174.903C174.903 189.932 174.733 191.201 174.392 192.239C174.051 193.269 173.638 194.11 173.153 194.761C172.676 195.405 172.225 195.909 171.801 196.273C171.665 196.394 171.536 196.515 171.415 196.636C171.294 196.758 171.165 196.879 171.028 197C170.241 197.795 169.286 198.383 168.165 198.761C167.051 199.14 165.953 199.33 164.869 199.33ZM207.011 183.295H203.466C203.33 182.538 203.076 181.871 202.705 181.295C202.333 180.72 201.879 180.231 201.341 179.83C200.803 179.428 200.201 179.125 199.534 178.92C198.875 178.716 198.174 178.614 197.432 178.614C196.091 178.614 194.89 178.951 193.83 179.625C192.777 180.299 191.943 181.288 191.33 182.591C190.723 183.894 190.42 185.485 190.42 187.364C190.42 189.258 190.723 190.856 191.33 192.159C191.943 193.462 192.78 194.447 193.841 195.114C194.902 195.78 196.095 196.114 197.42 196.114C198.155 196.114 198.852 196.015 199.511 195.818C200.178 195.614 200.78 195.314 201.318 194.92C201.856 194.527 202.311 194.045 202.682 193.477C203.061 192.902 203.322 192.242 203.466 191.5L207.011 191.511C206.822 192.655 206.455 193.708 205.909 194.67C205.371 195.625 204.678 196.451 203.83 197.148C202.989 197.837 202.027 198.371 200.943 198.75C199.86 199.129 198.678 199.318 197.398 199.318C195.383 199.318 193.587 198.841 192.011 197.886C190.436 196.924 189.193 195.549 188.284 193.761C187.383 191.973 186.932 189.841 186.932 187.364C186.932 184.879 187.386 182.746 188.295 180.966C189.205 179.178 190.447 177.807 192.023 176.852C193.598 175.89 195.39 175.409 197.398 175.409C198.633 175.409 199.784 175.587 200.852 175.943C201.928 176.292 202.894 176.807 203.75 177.489C204.606 178.163 205.314 178.989 205.875 179.966C206.436 180.936 206.814 182.045 207.011 183.295ZM221.997 191.761V181.545H225.406V199H222.065V195.977H221.884C221.482 196.909 220.838 197.686 219.952 198.307C219.073 198.92 217.978 199.227 216.668 199.227C215.546 199.227 214.554 198.981 213.69 198.489C212.834 197.989 212.16 197.25 211.668 196.273C211.183 195.295 210.94 194.087 210.94 192.648V181.545H214.338V192.239C214.338 193.428 214.668 194.375 215.327 195.08C215.986 195.784 216.842 196.136 217.895 196.136C218.531 196.136 219.164 195.977 219.793 195.659C220.429 195.341 220.955 194.86 221.372 194.216C221.796 193.572 222.005 192.754 221.997 191.761ZM243.051 185.807L239.972 186.352C239.843 185.958 239.638 185.583 239.358 185.227C239.085 184.871 238.714 184.58 238.244 184.352C237.775 184.125 237.188 184.011 236.483 184.011C235.521 184.011 234.718 184.227 234.074 184.659C233.43 185.083 233.108 185.633 233.108 186.307C233.108 186.89 233.324 187.36 233.756 187.716C234.188 188.072 234.884 188.364 235.847 188.591L238.619 189.227C240.225 189.598 241.422 190.17 242.21 190.943C242.998 191.716 243.392 192.72 243.392 193.955C243.392 195 243.089 195.932 242.483 196.75C241.884 197.561 241.047 198.197 239.972 198.659C238.903 199.121 237.665 199.352 236.256 199.352C234.301 199.352 232.706 198.936 231.472 198.102C230.237 197.261 229.479 196.068 229.199 194.523L232.483 194.023C232.688 194.879 233.108 195.527 233.744 195.966C234.381 196.398 235.21 196.614 236.233 196.614C237.347 196.614 238.237 196.383 238.903 195.92C239.57 195.451 239.903 194.879 239.903 194.205C239.903 193.659 239.699 193.201 239.29 192.83C238.888 192.458 238.271 192.178 237.438 191.989L234.483 191.341C232.854 190.97 231.65 190.379 230.869 189.568C230.097 188.758 229.71 187.731 229.71 186.489C229.71 185.458 229.998 184.557 230.574 183.784C231.15 183.011 231.945 182.409 232.96 181.977C233.975 181.538 235.138 181.318 236.449 181.318C238.335 181.318 239.82 181.727 240.903 182.545C241.987 183.356 242.703 184.443 243.051 185.807ZM255.276 181.545V184.273H245.741V181.545H255.276ZM248.298 177.364H251.696V193.875C251.696 194.534 251.795 195.03 251.991 195.364C252.188 195.689 252.442 195.913 252.753 196.034C253.071 196.148 253.416 196.205 253.787 196.205C254.06 196.205 254.298 196.186 254.503 196.148C254.707 196.11 254.866 196.08 254.98 196.057L255.594 198.864C255.397 198.939 255.116 199.015 254.753 199.091C254.389 199.174 253.935 199.22 253.389 199.227C252.495 199.242 251.662 199.083 250.889 198.75C250.116 198.417 249.491 197.902 249.014 197.205C248.537 196.508 248.298 195.633 248.298 194.58V177.364ZM266.199 199.352C264.563 199.352 263.134 198.977 261.915 198.227C260.695 197.477 259.748 196.428 259.074 195.08C258.4 193.731 258.062 192.155 258.062 190.352C258.062 188.542 258.4 186.958 259.074 185.602C259.748 184.246 260.695 183.193 261.915 182.443C263.134 181.693 264.563 181.318 266.199 181.318C267.835 181.318 269.263 181.693 270.483 182.443C271.703 183.193 272.65 184.246 273.324 185.602C273.998 186.958 274.335 188.542 274.335 190.352C274.335 192.155 273.998 193.731 273.324 195.08C272.65 196.428 271.703 197.477 270.483 198.227C269.263 198.977 267.835 199.352 266.199 199.352ZM266.21 196.5C267.271 196.5 268.15 196.22 268.847 195.659C269.544 195.098 270.059 194.352 270.392 193.42C270.733 192.489 270.903 191.462 270.903 190.341C270.903 189.227 270.733 188.205 270.392 187.273C270.059 186.333 269.544 185.58 268.847 185.011C268.15 184.443 267.271 184.159 266.21 184.159C265.142 184.159 264.256 184.443 263.551 185.011C262.854 185.58 262.335 186.333 261.994 187.273C261.661 188.205 261.494 189.227 261.494 190.341C261.494 191.462 261.661 192.489 261.994 193.42C262.335 194.352 262.854 195.098 263.551 195.659C264.256 196.22 265.142 196.5 266.21 196.5ZM278.128 199V181.545H281.389V184.386H281.605C281.969 183.424 282.563 182.674 283.389 182.136C284.215 181.591 285.204 181.318 286.355 181.318C287.522 181.318 288.499 181.591 289.287 182.136C290.082 182.682 290.67 183.432 291.048 184.386H291.23C291.647 183.455 292.31 182.712 293.219 182.159C294.128 181.598 295.211 181.318 296.469 181.318C298.052 181.318 299.344 181.814 300.344 182.807C301.351 183.799 301.855 185.295 301.855 187.295V199H298.457V187.614C298.457 186.432 298.135 185.576 297.491 185.045C296.848 184.515 296.079 184.25 295.185 184.25C294.079 184.25 293.219 184.591 292.605 185.273C291.991 185.947 291.685 186.814 291.685 187.875V199H288.298V187.398C288.298 186.451 288.003 185.689 287.412 185.114C286.821 184.538 286.052 184.25 285.105 184.25C284.461 184.25 283.866 184.42 283.321 184.761C282.783 185.095 282.348 185.561 282.014 186.159C281.688 186.758 281.526 187.451 281.526 188.239V199H278.128ZM306.409 199V181.545H309.807V199H306.409ZM308.125 178.852C307.534 178.852 307.027 178.655 306.602 178.261C306.186 177.86 305.977 177.383 305.977 176.83C305.977 176.269 306.186 175.792 306.602 175.398C307.027 174.996 307.534 174.795 308.125 174.795C308.716 174.795 309.22 174.996 309.636 175.398C310.061 175.792 310.273 176.269 310.273 176.83C310.273 177.383 310.061 177.86 309.636 178.261C309.22 178.655 308.716 178.852 308.125 178.852ZM314.014 199V196.67L323.469 184.659V184.5H314.321V181.545H327.707V184.023L318.616 195.886V196.045H328.026V199H314.014ZM337.114 199.386C336.008 199.386 335.008 199.182 334.114 198.773C333.22 198.356 332.511 197.754 331.989 196.966C331.473 196.178 331.216 195.212 331.216 194.068C331.216 193.083 331.405 192.273 331.784 191.636C332.163 191 332.674 190.496 333.318 190.125C333.962 189.754 334.682 189.473 335.477 189.284C336.273 189.095 337.083 188.951 337.909 188.852C338.955 188.731 339.803 188.633 340.455 188.557C341.106 188.473 341.58 188.341 341.875 188.159C342.17 187.977 342.318 187.682 342.318 187.273V187.193C342.318 186.201 342.038 185.432 341.477 184.886C340.924 184.341 340.098 184.068 339 184.068C337.856 184.068 336.955 184.322 336.295 184.83C335.644 185.33 335.193 185.886 334.943 186.5L331.75 185.773C332.129 184.712 332.682 183.856 333.409 183.205C334.144 182.545 334.989 182.068 335.943 181.773C336.898 181.47 337.902 181.318 338.955 181.318C339.652 181.318 340.39 181.402 341.17 181.568C341.958 181.727 342.693 182.023 343.375 182.455C344.064 182.886 344.629 183.504 345.068 184.307C345.508 185.102 345.727 186.136 345.727 187.409V199H342.409V196.614H342.273C342.053 197.053 341.723 197.485 341.284 197.909C340.845 198.333 340.28 198.686 339.591 198.966C338.902 199.246 338.076 199.386 337.114 199.386ZM337.852 196.659C338.792 196.659 339.595 196.473 340.261 196.102C340.936 195.731 341.447 195.246 341.795 194.648C342.152 194.042 342.33 193.394 342.33 192.705V190.455C342.208 190.576 341.973 190.689 341.625 190.795C341.284 190.894 340.894 190.981 340.455 191.057C340.015 191.125 339.587 191.189 339.17 191.25C338.754 191.303 338.405 191.348 338.125 191.386C337.466 191.47 336.864 191.61 336.318 191.807C335.78 192.004 335.348 192.288 335.023 192.659C334.705 193.023 334.545 193.508 334.545 194.114C334.545 194.955 334.856 195.591 335.477 196.023C336.098 196.447 336.89 196.659 337.852 196.659ZM337.727 179.216L340.386 173.977H343.966L340.443 179.216H337.727ZM364.56 181.545L358.23 199H354.594L348.253 181.545H351.901L356.321 194.977H356.503L360.912 181.545H364.56ZM374.682 199.352C372.962 199.352 371.481 198.985 370.239 198.25C369.004 197.508 368.049 196.466 367.375 195.125C366.708 193.777 366.375 192.197 366.375 190.386C366.375 188.598 366.708 187.023 367.375 185.659C368.049 184.295 368.989 183.231 370.193 182.466C371.405 181.701 372.822 181.318 374.443 181.318C375.428 181.318 376.383 181.481 377.307 181.807C378.231 182.133 379.061 182.644 379.795 183.341C380.53 184.038 381.11 184.943 381.534 186.057C381.958 187.163 382.17 188.508 382.17 190.091V191.295H368.295V188.75H378.841C378.841 187.856 378.659 187.064 378.295 186.375C377.932 185.678 377.42 185.129 376.761 184.727C376.11 184.326 375.345 184.125 374.466 184.125C373.511 184.125 372.678 184.36 371.966 184.83C371.261 185.292 370.716 185.898 370.33 186.648C369.951 187.39 369.761 188.197 369.761 189.068V191.057C369.761 192.223 369.966 193.216 370.375 194.034C370.792 194.852 371.371 195.477 372.114 195.909C372.856 196.333 373.723 196.545 374.716 196.545C375.36 196.545 375.947 196.455 376.477 196.273C377.008 196.083 377.466 195.803 377.852 195.432C378.239 195.061 378.534 194.602 378.739 194.057L381.955 194.636C381.697 195.583 381.235 196.413 380.568 197.125C379.909 197.83 379.08 198.379 378.08 198.773C377.087 199.159 375.955 199.352 374.682 199.352ZM389.338 175.727V199H385.94V175.727H389.338Z" fill="white"/>
<path d="M79.8523 228C79.7741 227.761 79.6712 227.547 79.5433 227.357C79.4179 227.165 79.2675 227.002 79.0923 226.867C78.9195 226.732 78.723 226.629 78.5028 226.558C78.2827 226.487 78.0412 226.452 77.7784 226.452C77.3475 226.452 76.9557 226.563 76.603 226.786C76.2502 227.008 75.9697 227.336 75.7614 227.769C75.553 228.202 75.4489 228.734 75.4489 229.364C75.4489 229.993 75.5542 230.525 75.7649 230.958C75.9756 231.391 76.2609 231.719 76.6207 231.942C76.9806 232.164 77.3854 232.276 77.8352 232.276C78.2519 232.276 78.6188 232.187 78.9361 232.009C79.2557 231.829 79.5043 231.576 79.6818 231.249C79.8617 230.92 79.9517 230.533 79.9517 230.088L80.2216 230.145H78.0341V229.364H80.804V230.145C80.804 230.744 80.6761 231.265 80.4205 231.707C80.1671 232.15 79.8168 232.493 79.3693 232.737C78.9242 232.979 78.4129 233.099 77.8352 233.099C77.1913 233.099 76.6255 232.948 76.1378 232.645C75.6525 232.342 75.2737 231.911 75.0014 231.352C74.7315 230.794 74.5966 230.131 74.5966 229.364C74.5966 228.788 74.6735 228.271 74.8274 227.812C74.9837 227.35 75.2038 226.957 75.4879 226.633C75.772 226.308 76.1082 226.06 76.4964 225.887C76.8847 225.714 77.312 225.628 77.7784 225.628C78.1619 225.628 78.5194 225.686 78.8509 225.802C79.1847 225.915 79.4818 226.078 79.7422 226.288C80.005 226.497 80.224 226.746 80.3991 227.038C80.5743 227.326 80.6951 227.647 80.7614 228H79.8523ZM83.1987 233V227.545H84.0083V228.369H84.0652C84.1646 228.099 84.3445 227.88 84.6049 227.712C84.8654 227.544 85.1589 227.46 85.4856 227.46C85.5472 227.46 85.6241 227.461 85.7164 227.464C85.8088 227.466 85.8786 227.47 85.926 227.474V228.327C85.8975 228.32 85.8324 228.309 85.7306 228.295C85.6312 228.278 85.5259 228.27 85.4146 228.27C85.1494 228.27 84.9127 228.326 84.7044 228.437C84.4984 228.546 84.335 228.697 84.2143 228.891C84.0959 229.083 84.0368 229.302 84.0368 229.548V233H83.1987ZM89.5245 233.128C89.1789 233.128 88.8652 233.063 88.5835 232.933C88.3017 232.8 88.078 232.609 87.9123 232.361C87.7466 232.11 87.6637 231.807 87.6637 231.452C87.6637 231.139 87.7253 230.886 87.8484 230.692C87.9715 230.495 88.136 230.341 88.342 230.23C88.5479 230.119 88.7752 230.036 89.0238 229.982C89.2747 229.925 89.5269 229.88 89.7802 229.847C90.1116 229.804 90.3803 229.772 90.5863 229.751C90.7946 229.727 90.9461 229.688 91.0408 229.634C91.1379 229.579 91.1864 229.484 91.1864 229.349V229.321C91.1864 228.971 91.0906 228.698 90.8988 228.504C90.7094 228.31 90.4218 228.213 90.0359 228.213C89.6358 228.213 89.3221 228.301 89.0948 228.476C88.8675 228.651 88.7077 228.838 88.6154 229.037L87.82 228.753C87.962 228.421 88.1514 228.163 88.3881 227.979C88.6272 227.792 88.8877 227.661 89.1694 227.588C89.4535 227.512 89.7328 227.474 90.0075 227.474C90.1826 227.474 90.3839 227.496 90.6112 227.538C90.8408 227.579 91.0621 227.663 91.2752 227.79C91.4906 227.918 91.6694 228.111 91.8114 228.369C91.9535 228.627 92.0245 228.973 92.0245 229.406V233H91.1864V232.261H91.1438C91.087 232.38 90.9923 232.506 90.8597 232.641C90.7272 232.776 90.5508 232.891 90.3306 232.986C90.1104 233.08 89.8417 233.128 89.5245 233.128ZM89.6523 232.375C89.9838 232.375 90.2631 232.31 90.4904 232.18C90.7201 232.049 90.8929 231.881 91.0089 231.675C91.1272 231.469 91.1864 231.253 91.1864 231.026V230.259C91.1509 230.301 91.0728 230.34 90.9521 230.376C90.8337 230.409 90.6964 230.438 90.5401 230.464C90.3862 230.488 90.2359 230.509 90.0891 230.528C89.9447 230.545 89.8275 230.559 89.7376 230.571C89.5198 230.599 89.3162 230.646 89.1268 230.71C88.9397 230.771 88.7882 230.865 88.6722 230.99C88.5586 231.113 88.5018 231.281 88.5018 231.494C88.5018 231.786 88.6095 232.006 88.8249 232.155C89.0427 232.302 89.3185 232.375 89.6523 232.375ZM89.6808 226.807L90.5472 225.159H91.5273L90.4194 226.807H89.6808ZM96.9263 227.545V228.256H94.0996V227.545H96.9263ZM94.9235 226.239H95.7615V231.438C95.7615 231.674 95.7959 231.852 95.8645 231.97C95.9355 232.086 96.0255 232.164 96.1344 232.205C96.2457 232.242 96.3629 232.261 96.486 232.261C96.5783 232.261 96.6541 232.257 96.7132 232.247C96.7724 232.235 96.8198 232.226 96.8553 232.219L97.0257 232.972C96.9689 232.993 96.8896 233.014 96.7878 233.036C96.686 233.059 96.557 233.071 96.4007 233.071C96.164 233.071 95.932 233.02 95.7047 232.918C95.4798 232.817 95.2928 232.661 95.1436 232.453C94.9969 232.245 94.9235 231.982 94.9235 231.665V226.239ZM99.187 233V227.545H100.025V233H99.187ZM99.6131 226.636C99.4498 226.636 99.3089 226.581 99.1905 226.469C99.0745 226.358 99.0165 226.224 99.0165 226.068C99.0165 225.912 99.0745 225.778 99.1905 225.667C99.3089 225.556 99.4498 225.5 99.6131 225.5C99.7765 225.5 99.9161 225.556 100.032 225.667C100.151 225.778 100.21 225.912 100.21 226.068C100.21 226.224 100.151 226.358 100.032 226.469C99.9161 226.581 99.7765 226.636 99.6131 226.636ZM106.424 228.767L105.671 228.98C105.623 228.855 105.554 228.733 105.461 228.614C105.371 228.494 105.248 228.394 105.092 228.316C104.936 228.238 104.736 228.199 104.492 228.199C104.158 228.199 103.88 228.276 103.657 228.43C103.437 228.581 103.327 228.774 103.327 229.009C103.327 229.217 103.403 229.381 103.554 229.502C103.706 229.623 103.943 229.723 104.265 229.804L105.074 230.003C105.562 230.121 105.925 230.302 106.164 230.546C106.404 230.788 106.523 231.099 106.523 231.48C106.523 231.793 106.433 232.072 106.253 232.318C106.076 232.564 105.827 232.759 105.507 232.901C105.188 233.043 104.816 233.114 104.392 233.114C103.836 233.114 103.376 232.993 103.011 232.751C102.646 232.51 102.416 232.157 102.319 231.693L103.114 231.494C103.19 231.788 103.333 232.008 103.544 232.155C103.757 232.302 104.035 232.375 104.378 232.375C104.769 232.375 105.079 232.292 105.309 232.126C105.541 231.958 105.657 231.757 105.657 231.523C105.657 231.333 105.59 231.175 105.458 231.047C105.325 230.917 105.122 230.82 104.847 230.756L103.938 230.543C103.438 230.424 103.071 230.241 102.837 229.992C102.605 229.741 102.489 229.428 102.489 229.051C102.489 228.743 102.575 228.471 102.748 228.234C102.923 227.998 103.161 227.812 103.462 227.677C103.765 227.542 104.108 227.474 104.492 227.474C105.032 227.474 105.455 227.593 105.763 227.83C106.073 228.066 106.293 228.379 106.424 228.767ZM112.597 235.045V227.545H113.407V228.412H113.506C113.568 228.317 113.653 228.196 113.762 228.05C113.873 227.901 114.032 227.768 114.238 227.652C114.446 227.534 114.728 227.474 115.083 227.474C115.542 227.474 115.947 227.589 116.297 227.819C116.648 228.049 116.921 228.374 117.118 228.795C117.314 229.217 117.412 229.714 117.412 230.287C117.412 230.865 117.314 231.365 117.118 231.789C116.921 232.21 116.649 232.537 116.301 232.769C115.953 232.999 115.552 233.114 115.097 233.114C114.747 233.114 114.466 233.056 114.256 232.94C114.045 232.821 113.883 232.687 113.769 232.538C113.655 232.387 113.568 232.261 113.506 232.162H113.435V235.045H112.597ZM113.421 230.273C113.421 230.685 113.481 231.048 113.602 231.363C113.723 231.675 113.899 231.92 114.131 232.098C114.363 232.273 114.647 232.361 114.983 232.361C115.334 232.361 115.626 232.268 115.861 232.084C116.097 231.897 116.275 231.646 116.393 231.331C116.514 231.014 116.574 230.661 116.574 230.273C116.574 229.889 116.515 229.544 116.397 229.236C116.281 228.926 116.104 228.681 115.868 228.501C115.633 228.318 115.339 228.227 114.983 228.227C114.643 228.227 114.356 228.314 114.124 228.487C113.892 228.657 113.717 228.896 113.599 229.204C113.48 229.509 113.421 229.866 113.421 230.273ZM121.296 233.128C120.95 233.128 120.637 233.063 120.355 232.933C120.073 232.8 119.849 232.609 119.684 232.361C119.518 232.11 119.435 231.807 119.435 231.452C119.435 231.139 119.497 230.886 119.62 230.692C119.743 230.495 119.907 230.341 120.113 230.23C120.319 230.119 120.547 230.036 120.795 229.982C121.046 229.925 121.298 229.88 121.552 229.847C121.883 229.804 122.152 229.772 122.358 229.751C122.566 229.727 122.718 229.688 122.812 229.634C122.909 229.579 122.958 229.484 122.958 229.349V229.321C122.958 228.971 122.862 228.698 122.67 228.504C122.481 228.31 122.193 228.213 121.807 228.213C121.407 228.213 121.094 228.301 120.866 228.476C120.639 228.651 120.479 228.838 120.387 229.037L119.591 228.753C119.733 228.421 119.923 228.163 120.16 227.979C120.399 227.792 120.659 227.661 120.941 227.588C121.225 227.512 121.504 227.474 121.779 227.474C121.954 227.474 122.155 227.496 122.383 227.538C122.612 227.579 122.834 227.663 123.047 227.79C123.262 227.918 123.441 228.111 123.583 228.369C123.725 228.627 123.796 228.973 123.796 229.406V233H122.958V232.261H122.915C122.858 232.38 122.764 232.506 122.631 232.641C122.499 232.776 122.322 232.891 122.102 232.986C121.882 233.08 121.613 233.128 121.296 233.128ZM121.424 232.375C121.755 232.375 122.035 232.31 122.262 232.18C122.492 232.049 122.664 231.881 122.78 231.675C122.899 231.469 122.958 231.253 122.958 231.026V230.259C122.922 230.301 122.844 230.34 122.724 230.376C122.605 230.409 122.468 230.438 122.312 230.464C122.158 230.488 122.007 230.509 121.861 230.528C121.716 230.545 121.599 230.559 121.509 230.571C121.291 230.599 121.088 230.646 120.898 230.71C120.711 230.771 120.56 230.865 120.444 230.99C120.33 231.113 120.273 231.281 120.273 231.494C120.273 231.786 120.381 232.006 120.596 232.155C120.814 232.302 121.09 232.375 121.424 232.375ZM126.326 233V227.545H127.135V228.369H127.192C127.292 228.099 127.471 227.88 127.732 227.712C127.992 227.544 128.286 227.46 128.613 227.46C128.674 227.46 128.751 227.461 128.843 227.464C128.936 227.466 129.006 227.47 129.053 227.474V228.327C129.025 228.32 128.959 228.309 128.858 228.295C128.758 228.278 128.653 228.27 128.542 228.27C128.276 228.27 128.04 228.326 127.831 228.437C127.625 228.546 127.462 228.697 127.341 228.891C127.223 229.083 127.164 229.302 127.164 229.548V233H126.326ZM132.651 233.128C132.306 233.128 131.992 233.063 131.71 232.933C131.429 232.8 131.205 232.609 131.039 232.361C130.874 232.11 130.791 231.807 130.791 231.452C130.791 231.139 130.852 230.886 130.975 230.692C131.098 230.495 131.263 230.341 131.469 230.23C131.675 230.119 131.902 230.036 132.151 229.982C132.402 229.925 132.654 229.88 132.907 229.847C133.239 229.804 133.507 229.772 133.713 229.751C133.922 229.727 134.073 229.688 134.168 229.634C134.265 229.579 134.313 229.484 134.313 229.349V229.321C134.313 228.971 134.218 228.698 134.026 228.504C133.836 228.31 133.549 228.213 133.163 228.213C132.763 228.213 132.449 228.301 132.222 228.476C131.994 228.651 131.835 228.838 131.742 229.037L130.947 228.753C131.089 228.421 131.278 228.163 131.515 227.979C131.754 227.792 132.015 227.661 132.296 227.588C132.58 227.512 132.86 227.474 133.134 227.474C133.31 227.474 133.511 227.496 133.738 227.538C133.968 227.579 134.189 227.663 134.402 227.79C134.618 227.918 134.796 228.111 134.938 228.369C135.08 228.627 135.151 228.973 135.151 229.406V233H134.313V232.261H134.271C134.214 232.38 134.119 232.506 133.987 232.641C133.854 232.776 133.678 232.891 133.458 232.986C133.237 233.08 132.969 233.128 132.651 233.128ZM132.779 232.375C133.111 232.375 133.39 232.31 133.617 232.18C133.847 232.049 134.02 231.881 134.136 231.675C134.254 231.469 134.313 231.253 134.313 231.026V230.259C134.278 230.301 134.2 230.34 134.079 230.376C133.961 230.409 133.823 230.438 133.667 230.464C133.513 230.488 133.363 230.509 133.216 230.528C133.072 230.545 132.954 230.559 132.865 230.571C132.647 230.599 132.443 230.646 132.254 230.71C132.067 230.771 131.915 230.865 131.799 230.99C131.686 231.113 131.629 231.281 131.629 231.494C131.629 231.786 131.736 232.006 131.952 232.155C132.17 232.302 132.445 232.375 132.779 232.375ZM144.931 230.77V227.545H145.769V233H144.931V232.077H144.874C144.746 232.354 144.548 232.589 144.278 232.783C144.008 232.975 143.667 233.071 143.255 233.071C142.914 233.071 142.611 232.996 142.346 232.847C142.081 232.696 141.872 232.469 141.721 232.165C141.569 231.86 141.494 231.475 141.494 231.011V227.545H142.332V230.955C142.332 231.352 142.443 231.67 142.665 231.906C142.89 232.143 143.177 232.261 143.525 232.261C143.733 232.261 143.945 232.208 144.161 232.102C144.378 231.995 144.561 231.832 144.707 231.612C144.857 231.391 144.931 231.111 144.931 230.77ZM152.168 228.767L151.415 228.98C151.368 228.855 151.298 228.733 151.205 228.614C151.115 228.494 150.992 228.394 150.836 228.316C150.68 228.238 150.48 228.199 150.236 228.199C149.902 228.199 149.624 228.276 149.401 228.43C149.181 228.581 149.071 228.774 149.071 229.009C149.071 229.217 149.147 229.381 149.298 229.502C149.45 229.623 149.687 229.723 150.009 229.804L150.818 230.003C151.306 230.121 151.669 230.302 151.909 230.546C152.148 230.788 152.267 231.099 152.267 231.48C152.267 231.793 152.177 232.072 151.997 232.318C151.82 232.564 151.571 232.759 151.252 232.901C150.932 233.043 150.56 233.114 150.137 233.114C149.58 233.114 149.12 232.993 148.755 232.751C148.391 232.51 148.16 232.157 148.063 231.693L148.858 231.494C148.934 231.788 149.077 232.008 149.288 232.155C149.501 232.302 149.779 232.375 150.122 232.375C150.513 232.375 150.823 232.292 151.053 232.126C151.285 231.958 151.401 231.757 151.401 231.523C151.401 231.333 151.334 231.175 151.202 231.047C151.069 230.917 150.866 230.82 150.591 230.756L149.682 230.543C149.182 230.424 148.816 230.241 148.581 229.992C148.349 229.741 148.233 229.428 148.233 229.051C148.233 228.743 148.32 228.471 148.492 228.234C148.668 227.998 148.905 227.812 149.206 227.677C149.509 227.542 149.852 227.474 150.236 227.474C150.776 227.474 151.2 227.593 151.507 227.83C151.817 228.066 152.038 228.379 152.168 228.767ZM156.134 233.128C155.788 233.128 155.475 233.063 155.193 232.933C154.911 232.8 154.687 232.609 154.522 232.361C154.356 232.11 154.273 231.807 154.273 231.452C154.273 231.139 154.335 230.886 154.458 230.692C154.581 230.495 154.745 230.341 154.951 230.23C155.157 230.119 155.385 230.036 155.633 229.982C155.884 229.925 156.136 229.88 156.39 229.847C156.721 229.804 156.99 229.772 157.196 229.751C157.404 229.727 157.556 229.688 157.65 229.634C157.747 229.579 157.796 229.484 157.796 229.349V229.321C157.796 228.971 157.7 228.698 157.508 228.504C157.319 228.31 157.031 228.213 156.645 228.213C156.245 228.213 155.931 228.301 155.704 228.476C155.477 228.651 155.317 228.838 155.225 229.037L154.429 228.753C154.571 228.421 154.761 228.163 154.998 227.979C155.237 227.792 155.497 227.661 155.779 227.588C156.063 227.512 156.342 227.474 156.617 227.474C156.792 227.474 156.993 227.496 157.221 227.538C157.45 227.579 157.672 227.663 157.885 227.79C158.1 227.918 158.279 228.111 158.421 228.369C158.563 228.627 158.634 228.973 158.634 229.406V233H157.796V232.261H157.753C157.696 232.38 157.602 232.506 157.469 232.641C157.337 232.776 157.16 232.891 156.94 232.986C156.72 233.08 156.451 233.128 156.134 233.128ZM156.262 232.375C156.593 232.375 156.873 232.31 157.1 232.18C157.329 232.049 157.502 231.881 157.618 231.675C157.737 231.469 157.796 231.253 157.796 231.026V230.259C157.76 230.301 157.682 230.34 157.561 230.376C157.443 230.409 157.306 230.438 157.15 230.464C156.996 230.488 156.845 230.509 156.699 230.528C156.554 230.545 156.437 230.559 156.347 230.571C156.129 230.599 155.926 230.646 155.736 230.71C155.549 230.771 155.398 230.865 155.282 230.99C155.168 231.113 155.111 231.281 155.111 231.494C155.111 231.786 155.219 232.006 155.434 232.155C155.652 232.302 155.928 232.375 156.262 232.375ZM161.164 233V227.545H161.973V228.369H162.03C162.129 228.099 162.309 227.88 162.57 227.712C162.83 227.544 163.124 227.46 163.45 227.46C163.512 227.46 163.589 227.461 163.681 227.464C163.774 227.466 163.843 227.47 163.891 227.474V228.327C163.862 228.32 163.797 228.309 163.695 228.295C163.596 228.278 163.491 228.27 163.379 228.27C163.114 228.27 162.878 228.326 162.669 228.437C162.463 228.546 162.3 228.697 162.179 228.891C162.061 229.083 162.002 229.302 162.002 229.548V233H161.164Z" fill="white"/>
<circle cx="61" cy="229" r="5" fill="white"/>
<path d="M58.8839 229.271L60.4105 230.515L62.9141 227.494" stroke="#28306A" stroke-width="0.625" stroke-linecap="round"/>
<path d="M80.733 246H79.8523C79.8002 245.747 79.709 245.524 79.5788 245.332C79.451 245.141 79.2947 244.98 79.1101 244.849C78.9278 244.717 78.7254 244.617 78.5028 244.551C78.2803 244.485 78.0483 244.452 77.8068 244.452C77.3665 244.452 76.9676 244.563 76.6101 244.786C76.255 245.008 75.9721 245.336 75.7614 245.769C75.553 246.202 75.4489 246.734 75.4489 247.364C75.4489 247.993 75.553 248.525 75.7614 248.958C75.9721 249.391 76.255 249.719 76.6101 249.942C76.9676 250.164 77.3665 250.276 77.8068 250.276C78.0483 250.276 78.2803 250.242 78.5028 250.176C78.7254 250.11 78.9278 250.012 79.1101 249.881C79.2947 249.749 79.451 249.587 79.5788 249.395C79.709 249.201 79.8002 248.978 79.8523 248.727H80.733C80.6667 249.099 80.5459 249.432 80.3707 249.725C80.1955 250.019 79.9777 250.268 79.7173 250.474C79.4569 250.678 79.1645 250.833 78.8402 250.94C78.5182 251.046 78.1738 251.099 77.8068 251.099C77.1866 251.099 76.6349 250.948 76.152 250.645C75.669 250.342 75.2891 249.911 75.0121 249.352C74.7351 248.794 74.5966 248.131 74.5966 247.364C74.5966 246.597 74.7351 245.934 75.0121 245.375C75.2891 244.816 75.669 244.385 76.152 244.082C76.6349 243.779 77.1866 243.628 77.8068 243.628C78.1738 243.628 78.5182 243.681 78.8402 243.788C79.1645 243.894 79.4569 244.05 79.7173 244.256C79.9777 244.46 80.1955 244.709 80.3707 245.002C80.5459 245.293 80.6667 245.626 80.733 246ZM86.4799 248.77V245.545H87.318V251H86.4799V250.077H86.4231C86.2953 250.354 86.0964 250.589 85.8265 250.783C85.5566 250.975 85.2157 251.071 84.8038 251.071C84.4629 251.071 84.1599 250.996 83.8947 250.847C83.6296 250.696 83.4212 250.469 83.2697 250.165C83.1182 249.86 83.0424 249.475 83.0424 249.011V245.545H83.8805V248.955C83.8805 249.352 83.9918 249.67 84.2143 249.906C84.4392 250.143 84.7257 250.261 85.0737 250.261C85.282 250.261 85.4939 250.208 85.7093 250.102C85.9271 249.995 86.1094 249.832 86.2562 249.612C86.4054 249.391 86.4799 249.111 86.4799 248.77ZM93.7166 246.767L92.9638 246.98C92.9164 246.855 92.8466 246.733 92.7543 246.614C92.6643 246.494 92.5412 246.394 92.3849 246.316C92.2287 246.238 92.0286 246.199 91.7848 246.199C91.451 246.199 91.1728 246.276 90.9503 246.43C90.7301 246.581 90.62 246.774 90.62 247.009C90.62 247.217 90.6958 247.381 90.8473 247.502C90.9988 247.623 91.2356 247.723 91.5575 247.804L92.3672 248.003C92.8549 248.121 93.2183 248.302 93.4574 248.546C93.6965 248.788 93.8161 249.099 93.8161 249.48C93.8161 249.793 93.7261 250.072 93.5462 250.318C93.3686 250.564 93.12 250.759 92.8004 250.901C92.4808 251.043 92.1091 251.114 91.6854 251.114C91.129 251.114 90.6686 250.993 90.304 250.751C89.9394 250.51 89.7086 250.157 89.6115 249.693L90.407 249.494C90.4827 249.788 90.6259 250.008 90.8366 250.155C91.0497 250.302 91.3279 250.375 91.6712 250.375C92.0618 250.375 92.3719 250.292 92.6016 250.126C92.8336 249.958 92.9496 249.757 92.9496 249.523C92.9496 249.333 92.8833 249.175 92.7507 249.047C92.6181 248.917 92.4145 248.82 92.1399 248.756L91.2308 248.543C90.7313 248.424 90.3643 248.241 90.13 247.992C89.898 247.741 89.782 247.428 89.782 247.051C89.782 246.743 89.8684 246.471 90.0412 246.234C90.2164 245.998 90.4543 245.812 90.755 245.677C91.058 245.542 91.4013 245.474 91.7848 245.474C92.3246 245.474 92.7483 245.593 93.0561 245.83C93.3662 246.066 93.5864 246.379 93.7166 246.767ZM98.4498 245.545V246.256H95.623V245.545H98.4498ZM96.4469 244.239H97.285V249.438C97.285 249.674 97.3193 249.852 97.388 249.97C97.459 250.086 97.5489 250.164 97.6578 250.205C97.7691 250.242 97.8863 250.261 98.0094 250.261C98.1017 250.261 98.1775 250.257 98.2367 250.247C98.2959 250.235 98.3432 250.226 98.3787 250.219L98.5492 250.972C98.4924 250.993 98.4131 251.014 98.3113 251.036C98.2095 251.059 98.0804 251.071 97.9242 251.071C97.6874 251.071 97.4554 251.02 97.2282 250.918C97.0033 250.817 96.8162 250.661 96.6671 250.453C96.5203 250.245 96.4469 249.982 96.4469 249.665V244.239ZM102.868 251.114C102.375 251.114 101.943 250.996 101.572 250.762C101.202 250.528 100.913 250.2 100.705 249.778C100.499 249.357 100.396 248.865 100.396 248.301C100.396 247.733 100.499 247.237 100.705 246.813C100.913 246.389 101.202 246.06 101.572 245.826C101.943 245.592 102.375 245.474 102.868 245.474C103.36 245.474 103.791 245.592 104.16 245.826C104.532 246.06 104.821 246.389 105.027 246.813C105.235 247.237 105.339 247.733 105.339 248.301C105.339 248.865 105.235 249.357 105.027 249.778C104.821 250.2 104.532 250.528 104.16 250.762C103.791 250.996 103.36 251.114 102.868 251.114ZM102.868 250.361C103.242 250.361 103.55 250.265 103.791 250.073C104.032 249.881 104.211 249.629 104.327 249.317C104.443 249.004 104.501 248.666 104.501 248.301C104.501 247.937 104.443 247.597 104.327 247.282C104.211 246.967 104.032 246.713 103.791 246.518C103.55 246.324 103.242 246.227 102.868 246.227C102.494 246.227 102.186 246.324 101.944 246.518C101.703 246.713 101.524 246.967 101.408 247.282C101.292 247.597 101.234 247.937 101.234 248.301C101.234 248.666 101.292 249.004 101.408 249.317C101.524 249.629 101.703 249.881 101.944 250.073C102.186 250.265 102.494 250.361 102.868 250.361ZM107.619 251V245.545H108.428V246.398H108.499C108.613 246.107 108.796 245.88 109.05 245.719C109.303 245.556 109.607 245.474 109.962 245.474C110.322 245.474 110.622 245.556 110.861 245.719C111.102 245.88 111.29 246.107 111.425 246.398H111.482C111.622 246.116 111.831 245.892 112.111 245.727C112.39 245.558 112.725 245.474 113.116 245.474C113.603 245.474 114.002 245.627 114.312 245.933C114.623 246.236 114.778 246.708 114.778 247.349V251H113.94V247.349C113.94 246.947 113.83 246.659 113.609 246.487C113.389 246.314 113.13 246.227 112.832 246.227C112.448 246.227 112.151 246.343 111.94 246.575C111.73 246.805 111.624 247.096 111.624 247.449V251H110.772V247.264C110.772 246.954 110.671 246.704 110.47 246.515C110.269 246.323 110.01 246.227 109.692 246.227C109.475 246.227 109.271 246.285 109.082 246.401C108.895 246.517 108.743 246.678 108.627 246.884C108.513 247.088 108.457 247.323 108.457 247.591V251H107.619ZM117.31 251V245.545H118.148V251H117.31ZM117.736 244.636C117.573 244.636 117.432 244.581 117.314 244.469C117.198 244.358 117.14 244.224 117.14 244.068C117.14 243.912 117.198 243.778 117.314 243.667C117.432 243.556 117.573 243.5 117.736 243.5C117.9 243.5 118.039 243.556 118.155 243.667C118.274 243.778 118.333 243.912 118.333 244.068C118.333 244.224 118.274 244.358 118.155 244.469C118.039 244.581 117.9 244.636 117.736 244.636ZM120.527 251V250.361L123.623 246.384V246.327H120.626V245.545H124.703V246.213L121.692 250.162V250.219H124.802V251H120.527ZM128.698 251.128C128.353 251.128 128.039 251.063 127.757 250.933C127.476 250.8 127.252 250.609 127.086 250.361C126.92 250.11 126.838 249.807 126.838 249.452C126.838 249.139 126.899 248.886 127.022 248.692C127.145 248.495 127.31 248.341 127.516 248.23C127.722 248.119 127.949 248.036 128.198 247.982C128.449 247.925 128.701 247.88 128.954 247.847C129.285 247.804 129.554 247.772 129.76 247.751C129.968 247.727 130.12 247.688 130.215 247.634C130.312 247.579 130.36 247.484 130.36 247.349V247.321C130.36 246.971 130.264 246.698 130.073 246.504C129.883 246.31 129.596 246.213 129.21 246.213C128.81 246.213 128.496 246.301 128.269 246.476C128.041 246.651 127.882 246.838 127.789 247.037L126.994 246.753C127.136 246.421 127.325 246.163 127.562 245.979C127.801 245.792 128.061 245.661 128.343 245.588C128.627 245.512 128.907 245.474 129.181 245.474C129.356 245.474 129.558 245.496 129.785 245.538C130.015 245.579 130.236 245.663 130.449 245.79C130.664 245.918 130.843 246.111 130.985 246.369C131.127 246.627 131.198 246.973 131.198 247.406V251H130.36V250.261H130.318C130.261 250.38 130.166 250.506 130.034 250.641C129.901 250.776 129.725 250.891 129.504 250.986C129.284 251.08 129.016 251.128 128.698 251.128ZM128.826 250.375C129.158 250.375 129.437 250.31 129.664 250.18C129.894 250.049 130.067 249.881 130.183 249.675C130.301 249.469 130.36 249.253 130.36 249.026V248.259C130.325 248.301 130.247 248.34 130.126 248.376C130.008 248.409 129.87 248.438 129.714 248.464C129.56 248.488 129.41 248.509 129.263 248.528C129.119 248.545 129.001 248.559 128.911 248.571C128.694 248.599 128.49 248.646 128.301 248.71C128.114 248.771 127.962 248.865 127.846 248.99C127.732 249.113 127.676 249.281 127.676 249.494C127.676 249.786 127.783 250.006 127.999 250.155C128.217 250.302 128.492 250.375 128.826 250.375ZM128.855 244.807L129.721 243.159H130.701L129.593 244.807H128.855ZM137.993 245.545L135.976 251H135.124L133.107 245.545H134.016L135.521 249.892H135.578L137.084 245.545H137.993ZM142.191 251.114C141.665 251.114 141.212 250.998 140.831 250.766C140.452 250.531 140.159 250.205 139.953 249.786C139.75 249.364 139.648 248.874 139.648 248.315C139.648 247.757 139.75 247.264 139.953 246.838C140.159 246.41 140.446 246.076 140.813 245.837C141.182 245.595 141.613 245.474 142.105 245.474C142.39 245.474 142.67 245.522 142.947 245.616C143.224 245.711 143.476 245.865 143.703 246.078C143.931 246.289 144.112 246.568 144.247 246.916C144.382 247.264 144.449 247.693 144.449 248.202V248.557H140.245V247.832H143.597C143.597 247.525 143.535 247.25 143.412 247.009C143.292 246.767 143.119 246.576 142.894 246.437C142.671 246.297 142.408 246.227 142.105 246.227C141.772 246.227 141.483 246.31 141.239 246.476C140.998 246.639 140.812 246.852 140.681 247.115C140.551 247.378 140.486 247.66 140.486 247.96V248.443C140.486 248.855 140.557 249.204 140.699 249.491C140.844 249.775 141.044 249.991 141.299 250.141C141.555 250.287 141.852 250.361 142.191 250.361C142.411 250.361 142.61 250.33 142.787 250.268C142.967 250.205 143.122 250.11 143.252 249.984C143.383 249.857 143.483 249.698 143.554 249.509L144.364 249.736C144.279 250.01 144.136 250.252 143.934 250.46C143.733 250.666 143.484 250.827 143.189 250.943C142.893 251.057 142.56 251.114 142.191 251.114ZM147.562 243.727V251H146.724V243.727H147.562Z" fill="white"/>
<circle cx="61" cy="247" r="5" fill="white"/>
<path d="M58.8839 247.271L60.4105 248.515L62.9141 245.494" stroke="#28306A" stroke-width="0.625" stroke-linecap="round"/>
<g clip-path="url(#clip0_1_220)">
<path d="M598.887 153.287L612.485 201.018C613.382 204.168 611.556 207.449 608.406 208.346L395.268 269.066C392.118 269.963 388.837 268.137 387.939 264.987L374.341 217.256L442.846 197.74L461.29 192.486L511.819 178.091L525.479 174.199L598.887 153.287Z" fill="white" stroke="#E4E4E4" stroke-width="0.624277"/>
<circle cx="447.134" cy="172.752" r="12.4855" transform="rotate(-15.9014 447.134 172.752)" fill="#6979F8"/>
<path d="M446.108 169.15L448.161 176.355M443.532 173.778L450.737 171.726" stroke="white" stroke-width="0.886894" stroke-linecap="round" stroke-linejoin="round"/>
<circle cx="475.693" cy="147.164" r="12.4855" transform="rotate(-15.9014 475.693 147.164)" fill="#6979F8"/>
<g clip-path="url(#clip1_1_220)">
<path d="M474.16 148.441L478.258 149.487M476.643 143.838L473.717 146.886M479.299 142.242C479.542 143.094 479.047 143.983 478.195 144.225C477.342 144.468 476.454 143.974 476.211 143.121C475.968 142.269 476.462 141.381 477.315 141.138C478.168 140.895 479.056 141.389 479.299 142.242ZM474.15 147.603C474.393 148.456 473.898 149.344 473.046 149.587C472.193 149.83 471.305 149.336 471.062 148.483C470.819 147.63 471.313 146.742 472.166 146.499C473.019 146.256 473.907 146.751 474.15 147.603ZM481.351 149.446C481.594 150.299 481.1 151.187 480.247 151.43C479.395 151.673 478.506 151.179 478.264 150.326C478.021 149.473 478.515 148.585 479.368 148.342C480.22 148.1 481.108 148.594 481.351 149.446Z" stroke="white" stroke-width="0.886894" stroke-linecap="round" stroke-linejoin="round"/>
</g>
<circle cx="513.45" cy="153.86" r="12.4855" transform="rotate(-15.9014 513.45 153.86)" fill="#6979F8"/>
<g clip-path="url(#clip2_1_220)">
<path d="M507.939 152.092L508.968 151.798M508.968 151.798L517.202 149.453M508.968 151.798L511.021 159.003C511.098 159.276 511.281 159.507 511.529 159.645C511.777 159.783 512.07 159.817 512.343 159.739L517.489 158.273C517.762 158.195 517.993 158.012 518.131 157.764C518.269 157.516 518.303 157.224 518.225 156.951L516.173 149.746L508.968 151.798ZM510.512 151.359L510.219 150.329C510.141 150.056 510.175 149.764 510.313 149.516C510.451 149.268 510.682 149.085 510.955 149.007L513.013 148.42C513.286 148.343 513.579 148.377 513.827 148.515C514.075 148.653 514.258 148.884 514.336 149.156L514.629 150.186M512.274 153.638L513.154 156.726M514.333 153.052L515.212 156.14" stroke="white" stroke-width="0.886894" stroke-linecap="round" stroke-linejoin="round"/>
</g>
<g clip-path="url(#clip3_1_220)">
<path d="M447.597 213.588L443.994 214.615L443.307 216.758L440.905 217.442L439.191 215.983L435.589 217.009M447.597 213.588L448.623 217.191C448.714 217.509 448.674 217.851 448.513 218.14C448.352 218.429 448.083 218.643 447.764 218.734L438.158 221.47C437.84 221.561 437.498 221.521 437.209 221.36C436.92 221.199 436.706 220.93 436.615 220.612L435.589 217.009M447.597 213.588L444.347 210.042C444.191 209.87 443.989 209.745 443.766 209.682C443.543 209.618 443.306 209.618 443.082 209.681L437.367 211.31C437.143 211.374 436.942 211.498 436.786 211.67C436.63 211.842 436.524 212.054 436.482 212.282L435.589 217.009" stroke="#6979F8" stroke-width="0.624277" stroke-linecap="round" stroke-linejoin="round"/>
</g>
<g clip-path="url(#clip4_1_220)">
<path d="M584.224 180.508L583.882 179.307C583.7 178.67 583.273 178.131 582.694 177.809C582.116 177.487 581.433 177.408 580.796 177.589L575.993 178.958C575.356 179.139 574.817 179.566 574.495 180.145C574.173 180.724 574.094 181.406 574.275 182.043L574.618 183.244M579.428 172.786C579.805 174.113 579.037 175.494 577.71 175.872C576.384 176.25 575.002 175.481 574.625 174.155C574.247 172.828 575.016 171.447 576.342 171.069C577.668 170.691 579.05 171.46 579.428 172.786Z" stroke="#6979F8" stroke-width="0.624277" stroke-linecap="round" stroke-linejoin="round"/>
</g>
<g clip-path="url(#clip5_1_220)">
<g clip-path="url(#clip6_1_220)">
<path d="M539.118 181.673C538.003 181.991 537.06 182.738 536.497 183.751C535.933 184.764 535.795 185.959 536.112 187.073L536.968 190.075C537.104 190.553 537.044 191.065 536.803 191.499C536.561 191.933 536.157 192.254 535.68 192.39L547.687 188.969C547.21 189.105 546.697 189.046 546.263 188.804C545.829 188.563 545.509 188.159 545.373 187.681L544.518 184.679C544.2 183.564 543.453 182.621 542.44 182.058C541.428 181.494 540.232 181.356 539.118 181.673ZM539.118 181.673L538.605 179.872M543.406 192.785C543.353 192.997 543.244 193.191 543.092 193.348C542.939 193.505 542.748 193.619 542.538 193.679C542.328 193.739 542.105 193.743 541.893 193.69C541.681 193.637 541.486 193.529 541.329 193.377" stroke="#6979F8" stroke-width="0.624277" stroke-linecap="round" stroke-linejoin="round"/>
</g>
</g>
<g clip-path="url(#clip7_1_220)">
<g clip-path="url(#clip8_1_220)">
<path d="M401.778 233.133L400.068 227.129L403.67 226.102L405.38 232.106M395.952 226.354L400.158 220.612L406.759 223.275L408.641 229.879C408.731 230.198 408.692 230.539 408.531 230.829C408.37 231.118 408.1 231.331 407.782 231.422L399.376 233.817C399.058 233.907 398.716 233.868 398.427 233.707C398.138 233.546 397.924 233.277 397.834 232.958L395.952 226.354Z" stroke="#6979F8" stroke-width="0.624277" stroke-linecap="round" stroke-linejoin="round"/>
</g>
</g>
<g filter="url(#filter0_dd_1_220)">
<g filter="url(#filter1_dd_1_220)">
<circle cx="487.068" cy="187.089" r="16.9974" transform="rotate(-15.9014 487.068 187.089)" fill="#6979F8"/>
</g>
<path d="M484.933 190.926L489.203 183.253M490.904 189.225L483.231 184.954" stroke="white" stroke-width="0.624277" stroke-linecap="round" stroke-linejoin="round"/>
</g>
</g>
<defs>
<filter id="filter0_dd_1_220" x="465.072" y="167.591" width="43.992" height="43.992" filterUnits="userSpaceOnUse" color-interpolation-filters="sRGB">
<feFlood flood-opacity="0" result="BackgroundImageFix"/>
<feColorMatrix in="SourceAlpha" type="matrix" values="0 0 0 0 0 0 0 0 0 0 0 0 0 0 0 0 0 0 127 0" result="hardAlpha"/>
<feOffset dy="2.49711"/>
<feGaussianBlur stdDeviation="2.49711"/>
<feColorMatrix type="matrix" values="0 0 0 0 0.196487 0 0 0 0 0.196487 0 0 0 0 0.279476 0 0 0 0.06 0"/>
<feBlend mode="multiply" in2="BackgroundImageFix" result="effect1_dropShadow_1_220"/>
<feColorMatrix in="SourceAlpha" type="matrix" values="0 0 0 0 0 0 0 0 0 0 0 0 0 0 0 0 0 0 127 0" result="hardAlpha"/>
<feOffset dy="2.49711"/>
<feGaussianBlur stdDeviation="1.24855"/>
<feColorMatrix type="matrix" values="0 0 0 0 0.196487 0 0 0 0 0.196487 0 0 0 0 0.279476 0 0 0 0.08 0"/>
<feBlend mode="multiply" in2="effect1_dropShadow_1_220" result="effect2_dropShadow_1_220"/>
<feBlend mode="normal" in="SourceGraphic" in2="effect2_dropShadow_1_220" result="shape"/>
</filter>
<filter id="filter1_dd_1_220" x="460.078" y="165.093" width="53.9804" height="53.9804" filterUnits="userSpaceOnUse" color-interpolation-filters="sRGB">
<feFlood flood-opacity="0" result="BackgroundImageFix"/>
<feColorMatrix in="SourceAlpha" type="matrix" values="0 0 0 0 0 0 0 0 0 0 0 0 0 0 0 0 0 0 127 0" result="hardAlpha"/>
<feOffset dy="4.99422"/>
<feGaussianBlur stdDeviation="4.99422"/>
<feColorMatrix type="matrix" values="0 0 0 0 0.196487 0 0 0 0 0.196487 0 0 0 0 0.279476 0 0 0 0.06 0"/>
<feBlend mode="multiply" in2="BackgroundImageFix" result="effect1_dropShadow_1_220"/>
<feColorMatrix in="SourceAlpha" type="matrix" values="0 0 0 0 0 0 0 0 0 0 0 0 0 0 0 0 0 0 127 0" result="hardAlpha"/>
<feOffset dy="4.99422"/>
<feGaussianBlur stdDeviation="2.49711"/>
<feColorMatrix type="matrix" values="0 0 0 0 0.196487 0 0 0 0 0.196487 0 0 0 0 0.279476 0 0 0 0.08 0"/>
<feBlend mode="multiply" in2="effect1_dropShadow_1_220" result="effect2_dropShadow_1_220"/>
<feBlend mode="normal" in="SourceGraphic" in2="effect2_dropShadow_1_220" result="shape"/>
</filter>
<clipPath id="clip0_1_220">
<rect width="234.104" height="108" fill="white" transform="translate(360 167.141) rotate(-15.9014)"/>
</clipPath>
<clipPath id="clip1_1_220">
<rect width="14.9827" height="14.9827" fill="white" transform="translate(466.436 142.011) rotate(-15.9014)"/>
</clipPath>
<clipPath id="clip2_1_220">
<rect width="14.9827" height="14.9827" fill="white" transform="translate(504.193 148.708) rotate(-15.9014)"/>
</clipPath>
<clipPath id="clip3_1_220">
<rect x="430.455" y="209.384" width="18.104" height="17.4798" rx="3.12139" transform="rotate(-15.9014 430.455 209.384)" fill="white"/>
</clipPath>
<clipPath id="clip4_1_220">
<rect x="566.743" y="170.558" width="18.104" height="17.4798" rx="3.12139" transform="rotate(-15.9014 566.743 170.558)" fill="white"/>
</clipPath>
<clipPath id="clip5_1_220">
<rect x="529.519" y="181.162" width="18.104" height="17.4798" rx="3.12139" transform="rotate(-15.9014 529.519 181.162)" fill="white"/>
</clipPath>
<clipPath id="clip6_1_220">
<rect width="17.4798" height="17.4798" fill="white" transform="translate(529.857 181.066) rotate(-15.9014)"/>
</clipPath>
<clipPath id="clip7_1_220">
<rect x="390.829" y="220.673" width="18.104" height="17.4798" rx="3.12139" transform="rotate(-15.9014 390.829 220.673)" fill="white"/>
</clipPath>
<clipPath id="clip8_1_220">
<rect width="17.4798" height="17.4798" fill="white" transform="translate(391.069 220.605) rotate(-15.9014)"/>
</clipPath>
</defs>
</svg>
